<svg width="580" height="400" xmlns="http://www.w3.org/2000/svg">
 <!-- Created with Method Draw - http://github.com/duopixel/Method-Draw/ -->
 <g>
  <title>background</title>
  <rect fill="#fff" id="canvas_background" height="402" width="582" y="-1" x="-1"/>
  <g display="none" overflow="visible" y="0" x="0" height="100%" width="100%" id="canvasGrid">
   <rect fill="url(#gridpattern)" stroke-width="0" y="0" x="0" height="100%" width="100%"/>
  </g>
 </g>
 <g>
  <title>Layer 1</title>
  <text stroke="#000" transform="matrix(2.9103028017858255,0,0,2.5999999046325684,-269.08664927079064,-333.5999801158905) " xml:space="preserve" text-anchor="start" font-family="Helvetica, Arial, sans-serif" font-size="24" id="svg_1" y="232.807692" x="110.290718" stroke-width="0" fill="#666666">Sorry, no</text>
  <text stroke="#000" transform="matrix(2.7601695910137014,0,0,2.8426779662397332,-46.82080225734227,-536.796807477876) " xml:space="preserve" text-anchor="start" font-family="Helvetica, Arial, sans-serif" font-size="24" id="svg_2" y="311.515504" x="37.356514" stroke-width="0" fill="#666666">image available.</text>
  <path stroke="#000" id="svg_3" d="m236.325995,61.211912c5.902265,-8.267802 19.336467,-9.735912 29.513899,-10.854415c11.349234,0.924087 20.096311,8.940032 26.750162,16.691681c7.740313,6.335897 17.190657,11.712419 21.064605,20.9888c9.794596,4.397122 21.357781,6.749069 27.353171,16.156965c9.061785,10.612982 14.283919,23.458885 19.008365,35.903081c0.750192,9.276846 5.274603,17.739809 6.815782,26.932976c2.642984,9.114097 4.74989,18.124305 7.597736,27.157944c3.165064,9.39183 7.661561,18.32927 10.812366,27.734263c5.754706,8.253597 10.994034,16.961843 14.566881,26.153636c-8.548999,-0.656496 0.789617,11.713638 2.392925,16.590215c2.337668,10.037202 -10.47206,4.290729 -12.712103,-0.344481c-7.911546,6.780884 -24.10876,8.303414 -31.278234,-0.596441c-7.552319,-9.01758 -11.723568,-20.459483 -22.14889,-26.987255c-4.099117,-3.091464 -8.076298,-16.59068 -9.543282,-4.668753c5.205218,11.861472 -15.279669,5.101006 -22.555834,7.231131c-13.041102,-2.37608 4.950651,-9.129396 10.491512,-8.329298c5.206139,-4.693699 13.870266,-12.554741 1.433926,-15.018665c-8.517066,-3.067974 -19.435877,-10.848063 -24.224361,0.732692c-6.012819,2.881758 -16.789152,16.553037 -4.85336,17.560559c4.823074,8.944642 -13.919164,2.474968 -19.152565,4.590607c-4.934281,1.409525 -17.232202,-1.061868 -5.778324,-3.323125c9.854589,-1.465931 14.553111,-12.433418 20.740066,-19.076795c-0.205163,-8.523426 -7.735234,-15.288066 -13.379451,-21.723531c-6.004382,-9.07084 -14.382237,-16.840276 -18.554252,-26.768056c-2.736671,-10.308752 -7.947017,-19.839944 -10.589463,-30.17243c-2.983257,-10.354684 -6.404322,-22.030405 0.015432,-31.953044c2.926011,-8.70572 4.144387,-16.827985 -1.995936,-23.993704c-8.484383,-6.248067 -20.542957,-3.742162 -30.325895,-7.885574c-1.179082,-6.691968 14.484052,-9.245304 21.291584,-10.740096c2.584531,-0.081322 4.562744,-2.04002 7.243538,-1.98891l0,0.000022z" stroke-width="1.5" fill="#666666"/>
 </g>
</svg>